<?xml version="1.0" encoding="UTF-8"?>
<svg width="32px" height="32px" viewBox="0 0 32 32" version="1.1" xmlns="http://www.w3.org/2000/svg" xmlns:xlink="http://www.w3.org/1999/xlink">
    <!-- Generator: Sketch 54.1 (76490) - https://sketchapp.com -->
    <title>支付宝复制</title>
    <desc>Created with Sketch.</desc>
    <defs>
        <rect id="path-1" x="0" y="0" width="32" height="32" rx="4"></rect>
    </defs>
    <g id="Page-1" stroke="none" stroke-width="1" fill="none" fill-rule="evenodd">
        <g id="下载文档弹层" transform="translate(-363.000000, -602.000000)">
            <g id="支付宝复制" transform="translate(363.000000, 602.000000)">
                <mask id="mask-2" fill="white">
                    <use xlink:href="#path-1"></use>
                </mask>
                <use id="矩形" fill="#4A90E2" xlink:href="#path-1"></use>
                <path d="M21.0867906,18.8172848 C21.0867906,18.8172848 21.6936651,17.9655826 22.3005126,16.2620459 C22.9507411,14.5585092 23.0373951,13.621568 23.0373951,13.621568 L18.0956643,13.5789749 L18.0956643,11.9180842 L24.0777821,11.8754911 L24.0777821,10.683071 L18.0956643,10.683071 L18.0956643,8 L15.1479728,8 L15.1479728,10.640478 L9.46933268,10.640478 L9.46933268,11.8328981 L15.0612649,11.790305 L15.0612649,13.5789749 L10.5964007,13.5789749 L10.5964007,14.5159161 L19.8296338,14.5159161 C19.8296338,14.5159161 19.7428989,15.2825116 19.3960943,16.2194529 C19.0059895,17.1563941 18.6592118,17.9655826 18.6592118,17.9655826 C18.6592118,17.9655826 14.3243555,16.4750112 12.0268925,16.4750112 C9.72942945,16.4750112 6.95509988,17.4119524 6.69497617,20.0098108 C6.43487941,22.6076693 7.99546,24.0556477 10.2061612,24.5667114 C12.3736163,25.0777486 14.4109287,24.5667114 16.1882791,23.7150092 C17.9656025,22.863307 19.6994641,20.9468315 19.6994641,20.9468315 L33.6696336,28.9942241 C33.6696336,28.9942241 34.2331541,28.1425219 34.6666667,27.3333333 C35.1002062,26.5241713 35.446957,25.6297966 35.446957,25.6297966 C30.0378745,22.7654878 25.2511524,20.4946505 21.0867906,18.8172848 Z M7.73539018,20.4355825 C7.73539018,19.3282426 8.42897257,18.0932294 11.1599212,17.9229102 C13.8909238,17.7525909 17.6188786,19.8393592 17.6188786,19.8393592 C17.6188786,19.8393592 14.8878761,23.1186535 11.6367608,23.1186535 C8.38569945,23.1186535 7.73539018,21.5429224 7.73539018,20.4355825 Z" id="形状" fill="#FFFFFF" fill-rule="nonzero" mask="url(#mask-2)"></path>
            </g>
        </g>
    </g>
</svg>