<?xml version="1.0" encoding="UTF-8"?>
<svg width="32px" height="32px" viewBox="0 0 32 32" version="1.1" xmlns="http://www.w3.org/2000/svg" xmlns:xlink="http://www.w3.org/1999/xlink">
    <!-- Generator: Sketch 54.1 (76490) - https://sketchapp.com -->
    <title>微信支付复制</title>
    <desc>Created with Sketch.</desc>
    <g id="Page-1" stroke="none" stroke-width="1" fill="none" fill-rule="evenodd">
        <g id="下载文档弹层" transform="translate(-363.000000, -654.000000)">
            <g id="微信支付复制" transform="translate(363.000000, 654.000000)">
                <rect id="矩形复制-2" fill="#88BF26" x="0" y="0" width="32" height="32" rx="4"></rect>
                <g id="微信支付" transform="translate(5.333333, 6.666667)" fill="#FFFFFF" fill-rule="nonzero">
                    <path d="M7.76282803,11.7853542 C7.66480299,11.8350571 7.56442795,11.8587789 7.44257791,11.8587789 C7.1700778,11.8587789 6.94780271,11.7119295 6.82347767,11.4916554 L6.77332765,11.3946595 L4.82067688,7.17963007 C4.79677687,7.1299272 4.79677687,7.08260906 4.79677687,7.03290619 C4.79677687,6.83635392 4.94497693,6.68950453 5.14335201,6.68950453 C5.21747704,6.68950453 5.29155207,6.71320125 5.3656771,6.76290412 L7.66480299,8.38025566 C7.83690306,8.47725157 8.03530314,8.55070137 8.25750323,8.55070137 C8.38180327,8.55070137 8.50375332,8.52697954 8.62805337,8.47725157 L19.4094326,3.72480352 C17.4807068,1.47050214 14.2923306,0 10.6810542,0 C4.79677687,0 0,3.94505251 0,8.8183438 C0,11.4633399 1.43402556,13.8643651 3.68307644,15.4817167 C3.85507651,15.6048442 3.97937655,15.8251183 3.97937655,16.0452669 C3.97937655,16.1186916 3.95545155,16.1921163 3.92922653,16.265541 C3.75720147,16.9261876 3.45845135,18.005995 3.45845135,18.0534136 C3.43450134,18.1267127 3.40812633,18.2238593 3.40812633,18.323265 C3.40812633,18.5198173 3.55635139,18.6666667 3.75475147,18.6666667 C3.8288265,18.6666667 3.90295152,18.6429699 3.95312654,18.593242 L6.27617745,17.2458925 C6.44830252,17.148746 6.6466776,17.0753464 6.84507767,17.0753464 C6.94297771,17.0753464 7.06730276,17.0990431 7.1653278,17.1250493 C8.25272822,17.4424448 9.44062869,17.6153003 10.6523292,17.6153003 C16.5366315,17.6153003 21.3333333,13.6702478 21.3333333,8.79695651 C21.3333333,7.32645436 20.8888332,5.93168634 20.1216579,4.70518012 L7.83690306,11.7356263 L7.76282803,11.7853291 L7.76282803,11.7853542 Z" id="路径"></path>
                </g>
            </g>
        </g>
    </g>
</svg>